<?xml version="1.0" encoding="UTF-8" standalone="no"?>
<!DOCTYPE svg PUBLIC "-//W3C//DTD SVG 1.1//EN"
 "http://www.w3.org/Graphics/SVG/1.1/DTD/svg11.dtd">
<!-- Generated by graphviz version 2.43.0 (0)
 -->
<!-- Title: IIQ Pages: 1 -->
<svg width="1491pt" height="642pt"
 viewBox="0.00 0.00 1491.00 642.00" xmlns="http://www.w3.org/2000/svg" xmlns:xlink="http://www.w3.org/1999/xlink">
<g id="graph0" class="graph" transform="scale(1 1) rotate(0) translate(4 638)">
<title>IIQ</title>
<polygon fill="white" stroke="transparent" points="-4,4 -4,-638 1487,-638 1487,4 -4,4"/>
<!-- spt_identity -->
<g id="node1" class="node">
<title>spt_identity</title>
<polygon fill="#534ab7" stroke="transparent" points="626,-609 626,-629 748,-629 748,-609 626,-609"/>
<text text-anchor="start" x="650.5" y="-617.2" font-family="Helvetica,sans-Serif" font-weight="bold" font-size="11.00" fill="white">spt_identity</text>
<text text-anchor="start" x="630" y="-596.2" font-family="Helvetica,sans-Serif" font-size="11.00">id (PK)</text>
<text text-anchor="start" x="630" y="-576.2" font-family="Helvetica,sans-Serif" font-size="11.00">name, display_name</text>
<polygon fill="none" stroke="black" points="625,-568 625,-630 749,-630 749,-568 625,-568"/>
</g>
<!-- spt_identity_request -->
<g id="node2" class="node">
<title>spt_identity_request</title>
<polygon fill="#185fa5" stroke="transparent" points="594,-471 594,-491 780,-491 780,-471 594,-471"/>
<text text-anchor="start" x="624" y="-479.2" font-family="Helvetica,sans-Serif" font-weight="bold" font-size="11.00" fill="white">spt_identity_request</text>
<text text-anchor="start" x="598" y="-458.2" font-family="Helvetica,sans-Serif" font-size="11.00">id (PK), name (request #)</text>
<text text-anchor="start" x="598" y="-438.2" font-family="Helvetica,sans-Serif" font-size="11.00">requester_id (FK), target_id (FK)</text>
<text text-anchor="start" x="598" y="-418.2" font-family="Helvetica,sans-Serif" font-size="11.00">task_result_id (FK)</text>
<text text-anchor="start" x="598" y="-398.2" font-family="Helvetica,sans-Serif" font-size="11.00">state, completion_status</text>
<polygon fill="none" stroke="black" points="593,-390 593,-492 781,-492 781,-390 593,-390"/>
</g>
<!-- spt_identity&#45;&gt;spt_identity_request -->
<g id="edge1" class="edge">
<title>spt_identity&#45;&gt;spt_identity_request</title>
<path fill="none" stroke="#555555" d="M687,-563.77C687,-546.03 687,-523.84 687,-503.28"/>
<polygon fill="#555555" stroke="#555555" points="689.45,-503.08 687,-496.08 684.55,-503.08 689.45,-503.08"/>
<text text-anchor="middle" x="738.5" y="-527.8" font-family="Helvetica,sans-Serif" font-size="9.00">requester / target &#160;1:N</text>
</g>
<!-- spt_work_item -->
<g id="node6" class="node">
<title>spt_work_item</title>
<polygon fill="#0f6e56" stroke="transparent" points="1270,-451 1270,-471 1451,-471 1451,-451 1270,-451"/>
<text text-anchor="start" x="1316" y="-459.2" font-family="Helvetica,sans-Serif" font-weight="bold" font-size="11.00" fill="white">spt_work_item</text>
<text text-anchor="start" x="1274" y="-438.2" font-family="Helvetica,sans-Serif" font-size="11.00">id (PK), owner_id (FK approver)</text>
<text text-anchor="start" x="1274" y="-418.2" font-family="Helvetica,sans-Serif" font-size="11.00">identity_request_id, type, state</text>
<polygon fill="none" stroke="black" points="1268.5,-410 1268.5,-472 1451.5,-472 1451.5,-410 1268.5,-410"/>
</g>
<!-- spt_identity&#45;&gt;spt_work_item -->
<g id="edge6" class="edge">
<title>spt_identity&#45;&gt;spt_work_item</title>
<path fill="none" stroke="#555555" d="M757.11,-589.86C862.16,-576.56 1065.92,-546.47 1233,-496 1248.75,-491.24 1265.2,-485.15 1280.82,-478.78"/>
<polygon fill="#555555" stroke="#555555" points="1281.93,-480.97 1287.47,-476.04 1280.06,-476.44 1281.93,-480.97"/>
<text text-anchor="middle" x="1156" y="-527.8" font-family="Helvetica,sans-Serif" font-size="9.00">owner = approver</text>
</g>
<!-- spt_link -->
<g id="node14" class="node">
<title>spt_link</title>
<polygon fill="#534ab7" stroke="transparent" points="9,-8 9,-28 135,-28 135,-8 9,-8"/>
<text text-anchor="start" x="13" y="-16.2" font-family="Helvetica,sans-Serif" font-weight="bold" font-size="11.00" fill="white">spt_link (accounts)</text>
<polygon fill="none" stroke="black" points="8,-7 8,-29 136,-29 136,-7 8,-7"/>
</g>
<!-- spt_identity&#45;&gt;spt_link -->
<g id="edge15" class="edge">
<title>spt_identity&#45;&gt;spt_link</title>
<path fill="none" stroke="#555555" d="M616.75,-595.8C449.58,-588.66 42,-559.22 42,-442 42,-442 42,-442 42,-121 42,-93.31 52.31,-63.04 60.84,-42.72"/>
<polygon fill="#555555" stroke="#555555" points="63.11,-43.63 63.64,-36.24 58.61,-41.69 63.11,-43.63"/>
<text text-anchor="middle" x="87" y="-260.8" font-family="Helvetica,sans-Serif" font-size="9.00">owns accounts &#160;1:N</text>
</g>
<!-- spt_identity_request_item -->
<g id="node3" class="node">
<title>spt_identity_request_item</title>
<polygon fill="#185fa5" stroke="transparent" points="588,-293 588,-313 786,-313 786,-293 588,-293"/>
<text text-anchor="start" x="607.5" y="-301.2" font-family="Helvetica,sans-Serif" font-weight="bold" font-size="11.00" fill="white">spt_identity_request_item</text>
<text text-anchor="start" x="592" y="-280.2" font-family="Helvetica,sans-Serif" font-size="11.00">id (PK), identity_request_id (FK)</text>
<text text-anchor="start" x="592" y="-260.2" font-family="Helvetica,sans-Serif" font-size="11.00">application, name, value</text>
<text text-anchor="start" x="592" y="-240.2" font-family="Helvetica,sans-Serif" font-size="11.00">operation (Add/Remove)</text>
<text text-anchor="start" x="592" y="-220.2" font-family="Helvetica,sans-Serif" font-size="11.00">approval_state, provisioning_state</text>
<polygon fill="none" stroke="black" points="587,-212 587,-314 787,-314 787,-212 587,-212"/>
</g>
<!-- spt_identity_request&#45;&gt;spt_identity_request_item -->
<g id="edge2" class="edge">
<title>spt_identity_request&#45;&gt;spt_identity_request_item</title>
<path fill="none" stroke="#555555" d="M687,-385.76C687,-366.6 687,-344.92 687,-325.22"/>
<polygon fill="#555555" stroke="#555555" points="689.45,-325.06 687,-318.06 684.55,-325.06 689.45,-325.06"/>
<text text-anchor="middle" x="717.5" y="-349.8" font-family="Helvetica,sans-Serif" font-size="9.00">contains &#160;1:N</text>
</g>
<!-- spt_task_result -->
<g id="node5" class="node">
<title>spt_task_result</title>
<polygon fill="#0f6e56" stroke="transparent" points="1080,-273 1080,-293 1254,-293 1254,-273 1080,-273"/>
<text text-anchor="start" x="1120" y="-281.2" font-family="Helvetica,sans-Serif" font-weight="bold" font-size="11.00" fill="white">spt_task_result</text>
<text text-anchor="start" x="1084" y="-260.2" font-family="Helvetica,sans-Serif" font-size="11.00">id (PK)</text>
<text text-anchor="start" x="1084" y="-240.2" font-family="Helvetica,sans-Serif" font-size="11.00">completed, completion_status</text>
<polygon fill="none" stroke="black" points="1079,-232 1079,-294 1255,-294 1255,-232 1079,-232"/>
</g>
<!-- spt_identity_request&#45;&gt;spt_task_result -->
<g id="edge3" class="edge">
<title>spt_identity_request&#45;&gt;spt_task_result</title>
<path fill="none" stroke="#555555" d="M789.17,-409.58C863.24,-386.64 965.37,-353.21 1053,-318 1065.72,-312.89 1079.03,-307.05 1091.89,-301.14"/>
<polygon fill="#555555" stroke="#555555" points="1093.24,-303.22 1098.57,-298.05 1091.19,-298.77 1093.24,-303.22"/>
<text text-anchor="middle" x="1015.5" y="-349.8" font-family="Helvetica,sans-Serif" font-size="9.00">task_result_id &#160;1:1</text>
</g>
<!-- spt_provisioning_transaction -->
<g id="node8" class="node">
<title>spt_provisioning_transaction</title>
<polygon fill="#993c1d" stroke="transparent" points="841,-273 841,-293 1026,-293 1026,-273 841,-273"/>
<text text-anchor="start" x="845" y="-281.2" font-family="Helvetica,sans-Serif" font-weight="bold" font-size="11.00" fill="white">spt_provisioning_transaction</text>
<text text-anchor="start" x="845" y="-260.2" font-family="Helvetica,sans-Serif" font-size="11.00">id (PK), identity_name</text>
<text text-anchor="start" x="845" y="-240.2" font-family="Helvetica,sans-Serif" font-size="11.00">application_name, status</text>
<polygon fill="none" stroke="black" points="839.5,-232 839.5,-294 1026.5,-294 1026.5,-232 839.5,-232"/>
</g>
<!-- spt_identity_request&#45;&gt;spt_provisioning_transaction -->
<g id="edge8" class="edge">
<title>spt_identity_request&#45;&gt;spt_provisioning_transaction</title>
<path fill="none" stroke="#555555" stroke-dasharray="5,2" d="M762.48,-386C800.26,-358.97 845.12,-326.88 879.34,-302.39"/>
<polygon fill="#555555" stroke="#555555" points="880.9,-304.29 885.17,-298.22 878.05,-300.3 880.9,-304.29"/>
<text text-anchor="middle" x="860" y="-349.8" font-family="Helvetica,sans-Serif" font-size="9.00">by request name &#160;1:N</text>
</g>
<!-- spt_audit_event -->
<g id="node9" class="node">
<title>spt_audit_event</title>
<polygon fill="#993c1d" stroke="transparent" points="178,-273 178,-293 283,-293 283,-273 178,-273"/>
<text text-anchor="start" x="182" y="-281.2" font-family="Helvetica,sans-Serif" font-weight="bold" font-size="11.00" fill="white">spt_audit_event</text>
<text text-anchor="start" x="182" y="-260.2" font-family="Helvetica,sans-Serif" font-size="11.00">id (PK), action</text>
<text text-anchor="start" x="182" y="-240.2" font-family="Helvetica,sans-Serif" font-size="11.00">source, target</text>
<polygon fill="none" stroke="black" points="176.5,-232 176.5,-294 283.5,-294 283.5,-232 176.5,-232"/>
</g>
<!-- spt_identity_request&#45;&gt;spt_audit_event -->
<g id="edge9" class="edge">
<title>spt_identity_request&#45;&gt;spt_audit_event</title>
<path fill="none" stroke="#555555" stroke-dasharray="5,2" d="M584.85,-415.59C506.99,-394.97 398.31,-361.79 309,-318 299.58,-313.38 290,-307.75 280.91,-301.9"/>
<polygon fill="#555555" stroke="#555555" points="282.21,-299.82 275.01,-298.02 279.52,-303.91 282.21,-299.82"/>
<text text-anchor="middle" x="439" y="-349.8" font-family="Helvetica,sans-Serif" font-size="9.00">by request id &#160;1:N</text>
</g>
<!-- spt_request -->
<g id="node10" class="node">
<title>spt_request</title>
<polygon fill="#993c1d" stroke="transparent" points="337,-263 337,-283 534,-283 534,-263 337,-263"/>
<text text-anchor="start" x="399" y="-271.2" font-family="Helvetica,sans-Serif" font-weight="bold" font-size="11.00" fill="white">spt_request</text>
<text text-anchor="start" x="341" y="-250.2" font-family="Helvetica,sans-Serif" font-size="11.00">scheduled sunrise / sunset events</text>
<polygon fill="none" stroke="black" points="335.5,-242 335.5,-284 534.5,-284 534.5,-242 335.5,-242"/>
</g>
<!-- spt_identity_request&#45;&gt;spt_request -->
<g id="edge10" class="edge">
<title>spt_identity_request&#45;&gt;spt_request</title>
<path fill="none" stroke="#555555" stroke-dasharray="5,2" d="M609.68,-386C565.37,-355.05 511.56,-317.47 475.48,-292.27"/>
<polygon fill="#555555" stroke="#555555" points="476.54,-290.02 469.4,-288.02 473.73,-294.04 476.54,-290.02"/>
<text text-anchor="middle" x="608" y="-349.8" font-family="Helvetica,sans-Serif" font-size="9.00">sunrise / sunset &#160;1:N</text>
</g>
<!-- spt_bundle -->
<g id="node11" class="node">
<title>spt_bundle</title>
<polygon fill="#534ab7" stroke="transparent" points="709,-112 709,-132 829,-132 829,-112 709,-112"/>
<text text-anchor="start" x="713" y="-120.2" font-family="Helvetica,sans-Serif" font-weight="bold" font-size="11.00" fill="white">spt_bundle (roles)</text>
<polygon fill="none" stroke="black" points="708,-111 708,-133 830,-133 830,-111 708,-111"/>
</g>
<!-- spt_identity_request_item&#45;&gt;spt_bundle -->
<g id="edge11" class="edge">
<title>spt_identity_request_item&#45;&gt;spt_bundle</title>
<path fill="none" stroke="#555555" stroke-dasharray="5,2" d="M718.94,-207.86C731.48,-186.6 745.22,-163.31 755.12,-146.52"/>
<polygon fill="#555555" stroke="#555555" points="757.41,-147.47 758.86,-140.2 753.19,-144.98 757.41,-147.47"/>
<text text-anchor="middle" x="771.5" y="-171.8" font-family="Helvetica,sans-Serif" font-size="9.00">role, by name</text>
</g>
<!-- spt_managed_attribute -->
<g id="node12" class="node">
<title>spt_managed_attribute</title>
<polygon fill="#534ab7" stroke="transparent" points="256,-112 256,-132 499,-132 499,-112 256,-112"/>
<text text-anchor="start" x="260" y="-120.2" font-family="Helvetica,sans-Serif" font-weight="bold" font-size="11.00" fill="white">spt_managed_attribute (entitlements)</text>
<polygon fill="none" stroke="black" points="254.5,-111 254.5,-133 499.5,-133 499.5,-111 254.5,-111"/>
</g>
<!-- spt_identity_request_item&#45;&gt;spt_managed_attribute -->
<g id="edge12" class="edge">
<title>spt_identity_request_item&#45;&gt;spt_managed_attribute</title>
<path fill="none" stroke="#555555" stroke-dasharray="5,2" d="M578.58,-213.38C524.66,-189.21 462.45,-161.32 421.57,-142.98"/>
<polygon fill="#555555" stroke="#555555" points="422.33,-140.64 414.94,-140.01 420.33,-145.11 422.33,-140.64"/>
<text text-anchor="middle" x="543.5" y="-171.8" font-family="Helvetica,sans-Serif" font-size="9.00">entitlement, by value</text>
</g>
<!-- spt_application -->
<g id="node13" class="node">
<title>spt_application</title>
<polygon fill="#534ab7" stroke="transparent" points="553,-112 553,-132 655,-132 655,-112 553,-112"/>
<text text-anchor="start" x="557" y="-120.2" font-family="Helvetica,sans-Serif" font-weight="bold" font-size="11.00" fill="white">spt_application</text>
<polygon fill="none" stroke="black" points="552,-111 552,-133 656,-133 656,-111 552,-111"/>
</g>
<!-- spt_identity_request_item&#45;&gt;spt_application -->
<g id="edge13" class="edge">
<title>spt_identity_request_item&#45;&gt;spt_application</title>
<path fill="none" stroke="#555555" stroke-dasharray="5,2" d="M651.62,-207.9C645.61,-198.35 639.53,-188.44 634,-179 627.82,-168.46 621.38,-156.56 616.05,-146.45"/>
<polygon fill="#555555" stroke="#555555" points="618.14,-145.16 612.73,-140.1 613.8,-147.43 618.14,-145.16"/>
<text text-anchor="middle" x="681" y="-171.8" font-family="Helvetica,sans-Serif" font-size="9.00">target app, by name</text>
</g>
<!-- spt_workflow_case -->
<g id="node4" class="node">
<title>spt_workflow_case</title>
<polygon fill="#0f6e56" stroke="transparent" points="1137,-609 1137,-629 1333,-629 1333,-609 1137,-609"/>
<text text-anchor="start" x="1177" y="-617.2" font-family="Helvetica,sans-Serif" font-weight="bold" font-size="11.00" fill="white">spt_workflow_case</text>
<text text-anchor="start" x="1141" y="-596.2" font-family="Helvetica,sans-Serif" font-size="11.00">id (PK)</text>
<text text-anchor="start" x="1141" y="-576.2" font-family="Helvetica,sans-Serif" font-size="11.00">attributes (plan + approvals XML)</text>
<polygon fill="none" stroke="black" points="1136,-568 1136,-630 1334,-630 1334,-568 1136,-568"/>
</g>
<!-- spt_workflow_case&#45;&gt;spt_task_result -->
<g id="edge4" class="edge">
<title>spt_workflow_case&#45;&gt;spt_task_result</title>
<path fill="none" stroke="#555555" d="M1218.15,-563.89C1209.26,-544.45 1199,-519.37 1193,-496 1176.27,-430.79 1170.31,-352.52 1168.18,-305.6"/>
<polygon fill="#555555" stroke="#555555" points="1170.61,-305.24 1167.87,-298.35 1165.72,-305.44 1170.61,-305.24"/>
<text text-anchor="middle" x="1218" y="-438.8" font-family="Helvetica,sans-Serif" font-size="9.00">paired &#160;1:1</text>
</g>
<!-- spt_workflow_case&#45;&gt;spt_work_item -->
<g id="edge5" class="edge">
<title>spt_workflow_case&#45;&gt;spt_work_item</title>
<path fill="none" stroke="#555555" d="M1262.43,-563.77C1281.81,-539.58 1307.83,-507.11 1328.13,-481.77"/>
<polygon fill="#555555" stroke="#555555" points="1330.17,-483.15 1332.63,-476.16 1326.34,-480.09 1330.17,-483.15"/>
<text text-anchor="middle" x="1341.5" y="-527.8" font-family="Helvetica,sans-Serif" font-size="9.00">spawns approvals &#160;1:N</text>
</g>
<!-- spt_work_item_archive -->
<g id="node7" class="node">
<title>spt_work_item_archive</title>
<polygon fill="#5f5e5a" stroke="transparent" points="1308,-263 1308,-283 1474,-283 1474,-263 1308,-263"/>
<text text-anchor="start" x="1321" y="-271.2" font-family="Helvetica,sans-Serif" font-weight="bold" font-size="11.00" fill="white">spt_work_item_archive</text>
<text text-anchor="start" x="1312" y="-250.2" font-family="Helvetica,sans-Serif" font-size="11.00">completed approvals history</text>
<polygon fill="none" stroke="black" points="1307,-242 1307,-284 1475,-284 1475,-242 1307,-242"/>
</g>
<!-- spt_work_item&#45;&gt;spt_work_item_archive -->
<g id="edge7" class="edge">
<title>spt_work_item&#45;&gt;spt_work_item_archive</title>
<path fill="none" stroke="#555555" stroke-dasharray="5,2" d="M1366.05,-405.65C1371.69,-373.6 1380.04,-326.21 1385.5,-295.22"/>
<polygon fill="#555555" stroke="#555555" points="1387.95,-295.42 1386.76,-288.1 1383.13,-294.57 1387.95,-295.42"/>
<text text-anchor="middle" x="1428.5" y="-349.8" font-family="Helvetica,sans-Serif" font-size="9.00">archived on completion</text>
</g>
<!-- spt_application&#45;&gt;spt_link -->
<g id="edge14" class="edge">
<title>spt_application&#45;&gt;spt_link</title>
<path fill="none" stroke="#555555" d="M543.99,-107.73C537.92,-106.45 531.84,-105.18 526,-104 394.83,-77.43 241.72,-49.38 151.03,-33.07"/>
<polygon fill="#555555" stroke="#555555" points="151.4,-30.64 144.07,-31.82 150.53,-35.47 151.4,-30.64"/>
<text text-anchor="middle" x="417" y="-67.8" font-family="Helvetica,sans-Serif" font-size="9.00">has accounts &#160;1:N</text>
</g>
</g>
</svg>
